<svg id="Ebene_1" data-name="Ebene 1" xmlns="http://www.w3.org/2000/svg" viewBox="0 0 829 142.99"><defs><style>.cls-1{fill:#000;}.cls-2{fill:#0069b4;}.cls-2{fill-rule:evenodd;}</style></defs><title>SY170808 Logo SmartSVN Negativ Quer</title><path class="cls-1" d="M782,301.47v81.4q0,3.21-3.22,3.21H768.6c-2.14,0-3.21-1.07-3.21-3.21V290.22c0-2.14,1.08-3.21,3.21-3.21h27.31c2.15,0,3.22,1.07,3.22,2.68l15,81.94h4.29v-81.4c0-2.14,1.07-3.21,3.75-3.21h9.64q3.21,0,3.21,3.21v92.65q0,3.21-3.21,3.21H805.55c-2.15,0-3.75-1.07-4.29-3.75l-14.46-80.86Zm-83,84.61a5.15,5.15,0,0,1-4.82-3.21l-13.92-90v-2.14c0-2.14,1.61-3.75,4.82-3.75h9.1q4,0,4.82,3.21l10.71,81.4h9.65L730,290.22q.81-3.21,4.82-3.21H744c3.21,0,4.82,1.61,4.82,3.75v2.14l-13.92,90a5.15,5.15,0,0,1-4.82,3.21ZM640.61,285.4c16.6,0,24.63,2.14,24.63,5.89v2.14l-1.07,4.28c0,2.68-2.15,3.75-4.82,3.75a4.81,4.81,0,0,1-2.68-.54h-2.14a10.39,10.39,0,0,0-4.29-.54c-2.14,0-4.82-.53-8-.53-4.82,0-8,1.07-9.63,2.68-2.15,1.61-3.22,4.29-3.22,7.5a12.13,12.13,0,0,0,3.22,8.57,91.41,91.41,0,0,0,7.5,6.43c3.21,1.61,6.42,3.21,10.17,4.82,3.22,2.14,7,4.28,9.65,6.42a29.69,29.69,0,0,1,7.5,9.1c2.14,3.75,3.21,8,3.21,13.92a27.39,27.39,0,0,1-2.67,11.78,26.79,26.79,0,0,1-8,9.11,25.36,25.36,0,0,1-10.71,5.35,40,40,0,0,1-13.92,2.14c-3.21,0-7-.54-10.18-.54a40,40,0,0,1-8.56-2.14,19.88,19.88,0,0,1-5.9-2.68,2.73,2.73,0,0,1-2.14-2.68A2,2,0,0,1,609,378l1.6-5.89a2.78,2.78,0,0,1,1.07-2.14,6.23,6.23,0,0,1,3.75-1.07c1.07,0,1.61.53,2.68.53a25.92,25.92,0,0,0,3.75,1.61c1.61.53,3.21.53,5.89,1.07,2.14.53,4.82.53,8.57.53a20.08,20.08,0,0,0,5.88-.53c2.15-1.07,3.75-1.61,5.36-3.21a8.34,8.34,0,0,0,3.21-4.29,11.38,11.38,0,0,0,1.61-6.42c0-3.75-1.07-7-3.22-9.1a17.8,17.8,0,0,0-7.5-6.42,86.9,86.9,0,0,0-9.64-5.36,62.87,62.87,0,0,1-10.18-5.89c-3.22-2.14-5.35-5.36-7.5-8.57s-3.21-7.5-3.21-12.85a28.63,28.63,0,0,1,2.14-10.18,31.31,31.31,0,0,1,5.89-8,27.18,27.18,0,0,1,9.65-4.82A39.16,39.16,0,0,1,640.61,285.4Z" transform="translate(-6 -272.01)"/><path class="cls-1" d="M579.55,312.71h17.68c1.07,0,1.6,1.07,1.6,2.14v6.42a1.42,1.42,0,0,1-1.6,1.61H579.55v49.8a23,23,0,0,0,.54,2.68c.54,1.07,1.08,1.61,1.61,1.61h8c1.07,0,2.14,0,2.68-.54h2.14c.54-.53,1.07-.53,2.15-.53.54,0,1.07.53,1.61,1.61l1.61,4.82v1.61c0,1.07-.54,1.61-1.61,2.14a15.7,15.7,0,0,0-4.82,1.07h-4.82a15,15,0,0,1-4.29.54c-4.29,0-7.5-.54-9.64-2.14a12.61,12.61,0,0,1-4.82-4.29c-1.07-2.14-2.14-4.28-2.14-7a32.83,32.83,0,0,1-.54-7.5V322.89H557.6a2,2,0,0,1-1.61-.54,1.86,1.86,0,0,1-.54-1.07v-6.42c0-.54.54-1.07.54-1.61.54,0,1.07-.54,1.61-.54h9.63V292.9c0-1.07.54-2.14,1.61-2.14h8.57a2.3,2.3,0,0,1,2.14,2.14v19.82Zm-57.83,0c.54,0,1.07.54,1.61,1.07a4.11,4.11,0,0,1,1.07,2.68c.54.54.54,1.61,1.07,2.68,0,1.07,0,2.14.54,2.68a59.08,59.08,0,0,1,8.56-6.43,35.87,35.87,0,0,1,13.92-2.68,2.3,2.3,0,0,1,2.14,2.14v6.42c0,1.07-1.07,1.61-2.14,1.61-2.14,0-4.82.53-6.42.53a19.27,19.27,0,0,0-5.9,2.14c-1.61.53-3.21,2.14-4.82,3.75a33.41,33.41,0,0,0-4.82,6.43v48.2c0,1.61-.53,2.14-1.61,2.14h-8c-1.61,0-2.14-.54-2.14-2.14V314.85a2,2,0,0,1,2.14-2.14Zm-35.88,38a61.29,61.29,0,0,0-10.18.54c-2.68.53-5.89,1.07-8,2.68a10.78,10.78,0,0,0-5.89,4.82c-1.61,1.61-2.14,4.82-2.14,8s.54,5.89,2.14,7.5c1.08,2.14,3.75,2.68,7.5,2.68,2.68,0,4.82,0,6.43-1.07a10.94,10.94,0,0,0,4.82-2.68,22.91,22.91,0,0,0,3.22-3.75c.54-1.61,1.61-2.68,2.14-4.28V350.73Zm-10.18-39.09q7.22,0,11.25,1.61a11.91,11.91,0,0,1,7,4.28,12.24,12.24,0,0,1,3.21,6.43,40.39,40.39,0,0,1,.54,8v29.45a21.87,21.87,0,0,0,.54,5.89,20,20,0,0,0,.54,5.89c.53,2.14,1.07,4.28,1.6,5.89.54,2.14,1.08,3.75,2.15,4.82,0,1.61-.54,2.14-2.15,2.14h-4.82a5.61,5.61,0,0,1-4.82-2.68c-1.61-1.61-2.15-3.75-2.68-5.35-2.14,3.21-4.82,5.89-8.57,7a25.55,25.55,0,0,1-11.78,2.68c-3.75,0-7-.54-9.64-2.14a23.72,23.72,0,0,1-5.89-4.29,18.14,18.14,0,0,1-3.22-6.43c-1.07-2.14-1.07-4.28-1.07-7,0-4.82.54-9.1,2.68-12.85a19.31,19.31,0,0,1,8-8c3.21-2.14,7-3.21,11.78-4.28a69.2,69.2,0,0,1,15.53-1.61V330.92c0-2.14-.54-3.21-.54-4.29a3,3,0,0,0-1.61-2.68,4.86,4.86,0,0,0-3.75-1.61,22.13,22.13,0,0,0-6.43-.53,41.54,41.54,0,0,0-8.57,1.07c-2.67,1.07-5.88,2.14-9.1,3.75h-1.07a2,2,0,0,1-1.61-.54l-2.67-6.43a.52.52,0,0,1-.54-.53c0-1.07.54-1.61,2.14-2.68a31.34,31.34,0,0,1,5.89-2.68q3.21-.8,8-1.61a57.91,57.91,0,0,1,9.64-.54Zm-52.48,74.44a1.89,1.89,0,0,1-2.14-2.14V328.78c0-2.68-.54-4.82-1.07-5.36-.54-1.07-1.61-1.61-3.75-1.61-2.69,0-5.36,1.07-8.57,2.68-3.21,2.14-6.43,5.89-10.71,11.25v48.2a2,2,0,0,1-.53,1.61c0,.54-.54.54-1.07.54h-8.57c-.54,0-.54,0-1.07-.54a2,2,0,0,1-.54-1.61V328.78c0-2.68-.53-4.82-1.07-5.36a3.25,3.25,0,0,0-3.22-1.61,8,8,0,0,0-3.75.53,10.74,10.74,0,0,0-4.28,2.14,38.66,38.66,0,0,0-5.36,4.82,69.52,69.52,0,0,0-7,6.43v48.2c0,1.61-.54,2.14-1.61,2.14h-8c-1.6,0-2.14-.54-2.14-2.14V314.85a2,2,0,0,1,2.14-2.14h4.29c.54,0,1.07.54,1.61,1.07.53,1.07,1.07,1.61,1.6,2.68a34.09,34.09,0,0,1,1.08,3.75,23.31,23.31,0,0,0,.54,2.68c4.29-4.29,8-7.5,11.78-9.11A28,28,0,0,1,383,311.64c4.29,0,7.5,1.07,9.11,2.68,2.14,2.14,3.21,5.36,3.75,8.57,2.14-2.14,4.29-4.29,6.42-5.36a36.23,36.23,0,0,1,5.9-3.75,10.3,10.3,0,0,1,5.35-1.61,16.49,16.49,0,0,1,5.36-.54c4.29,0,8,1.07,10.18,4.29,2.68,3.21,4.28,7.5,4.28,13.92v54.09c0,.53-.53,1.07-1.07,1.61,0,.54-.53.54-1.07.54ZM304.83,285.4c15,0,22.49,1.07,22.49,3.75v1.07a1.66,1.66,0,0,1-.54,1.07l-.53,4.29c0,1.07-1.07,1.61-2.14,1.61H322c-1.07,0-2.14-.54-3.75-.54a22.24,22.24,0,0,1-5.35-.53h-9.11c-4.29,0-8,1.07-10.17,3.21-2.68,2.14-3.75,5.35-3.75,9.64A15,15,0,0,0,293,318.6a52.8,52.8,0,0,0,8,6.43,61.08,61.08,0,0,0,10.17,5.35,40.78,40.78,0,0,1,10.18,6.43,32.93,32.93,0,0,1,8,9.1q3.2,5.62,3.21,14.46c0,4.28-.54,8-2.68,11.78a27.24,27.24,0,0,1-7,8.57,66.63,66.63,0,0,1-10.71,5.36,53,53,0,0,1-12.86,1.61,57.87,57.87,0,0,1-9.63-.54c-2.68-.53-5.36-.53-8-1.07-2.15-.54-3.75-1.61-5.36-2.14-1.07-.54-2.14-1.61-2.14-2.14a.52.52,0,0,0,.53-.54v-1.07l1.61-5.89c.54-1.07,1.08-1.61,2.14-1.61.54,0,1.07.54,1.61.54a32.53,32.53,0,0,0,8.57,2.68A80.08,80.08,0,0,0,300,377a41.39,41.39,0,0,0,8-1.07,40.13,40.13,0,0,0,6.43-3.75,14.58,14.58,0,0,0,4.29-5.36,17.15,17.15,0,0,0,1.61-7.5,17.93,17.93,0,0,0-1.61-8,67.13,67.13,0,0,0-4.82-6.43,30.36,30.36,0,0,0-7-4.28c-2.68-1.61-5.35-2.68-8-4.29a58.37,58.37,0,0,1-8-4.29c-2.14-1.61-4.82-3.21-6.43-5.35a38.26,38.26,0,0,1-5.35-7.5A29.07,29.07,0,0,1,277.52,309c0-3.75.54-7.5,2.14-10.18a24.23,24.23,0,0,1,5.36-7.5,42.38,42.38,0,0,1,8.57-4.29A35.57,35.57,0,0,1,304.83,285.4Z" transform="translate(-6 -272.01)"/><path class="cls-2" d="M86.86,365.19l18.22-25.71,23.56,16.6-22,31.6h0L86.86,415,6,299.32H41.88l45,65.87Zm24.64-34.27,23.56,16.6,18.21-25.71,45,65.87h36.42L153.8,272,134,299.32h0Z" transform="translate(-6 -272.01)"/></svg>
