<?xml version="1.0" encoding="UTF-8"?>
<!DOCTYPE svg PUBLIC "-//W3C//DTD SVG 1.1//EN" "http://www.w3.org/Graphics/SVG/1.1/DTD/svg11.dtd">
<!-- Creator: CorelDRAW -->
<svg xmlns="http://www.w3.org/2000/svg" xml:space="preserve" width="172.403mm" height="25.9019mm" style="shape-rendering:geometricPrecision; text-rendering:geometricPrecision; image-rendering:optimizeQuality; fill-rule:evenodd; clip-rule:evenodd"
viewBox="0 0 176.342 26.4936"
 xmlns:xlink="http://www.w3.org/1999/xlink">
 <defs>
  <style type="text/css">
   <![CDATA[
    .fil0 {fill:#A3BF2B}
    .fil3 {fill:white}
    .fil1 {fill:#212125;fill-rule:nonzero}
    .fil2 {fill:#96969A;fill-rule:nonzero}
   ]]>
  </style>
 </defs>
 <g id="Layer_x0020_1">
  <metadata id="CorelCorpID_0Corel-Layer"/>
  <g id="_136032304">
   <path id="_138272752" class="fil0" d="M4.11602 0l18.2615 0c2.26396,0 4.11602,1.85206 4.11602,4.11602l0 18.2615c0,2.26406 -1.85206,4.11602 -4.11602,4.11602l-18.2615 0c-2.26406,0 -4.11602,-1.85196 -4.11602,-4.11602l0 -18.2615c0,-2.26396 1.85196,-4.11602 4.11602,-4.11602z"/>
   <g>
    <path id="_137365792" class="fil1" d="M31.3245 10.1476c0,-1.71991 0.579645,-2.87981 1.73955,-3.47981 0.119979,-0.0799863 0.22032,-0.130106 0.300307,-0.15046 1.14026,-0.459563 2.96993,-0.709751 5.4898,-0.749744 0.279952,0 0.554892,-0.00511421 0.825332,-0.0152404 0.269826,-0.00951244 0.53464,-0.0146266 0.794851,-0.0146266 3.51981,0 5.97995,0.2597 7.37991,0.779611 1.35987,0.48002 2.03986,1.75039 2.03986,3.80999l-3.92986 0c0,-0.819706 -0.334674,-1.34974 -1.00505,-1.5898 -0.66986,-0.239959 -1.6748,-0.359938 -3.01503,-0.359938l-1.13965 0c-0.500272,0 -0.965052,0.00511421 -1.39546,0.0152404 -0.429798,0.00951244 -0.815206,0.0158541 -1.15489,0.0146266 -1.35291,-0.00634162 -2.96993,0.227889 -2.87981,2.03986 0.00450051,0.0996249 0.0102284,0.180327 0.029867,0.240573 0.0603477,0.400034 0.360041,0.66986 0.900306,0.809478 0.0399931,0 0.139618,0.0203546 0.299591,0.0603477 0.780327,0.119979 2.24054,0.179713 4.38012,0.179713 1.23989,0 2.30518,0.0152404 3.19536,0.0450051 0.890078,0.0304807 1.62458,0.0654619 2.20494,0.105455 0.359938,0.0196386 0.690112,0.0596317 0.989703,0.119979 0.300307,0.0596317 0.580361,0.139618 0.839958,0.239959 0.320047,0.119979 0.599999,0.279952 0.839958,0.48002 0.82032,0.599897 1.23038,1.7598 1.23038,3.47971 0,1.39996 -0.350426,2.43038 -1.05005,3.09001 -0.119979,0.100239 -0.245073,0.199966 -0.375179,0.300307 -0.130208,0.0996249 -0.27494,0.18984 -0.434913,0.269826 -0.22032,0.0996249 -0.46478,0.194852 -0.735219,0.285066 -0.269826,0.0901124 -0.584759,0.154858 -0.944697,0.194852 -0.620252,0.0997272 -1.42022,0.180327 -2.3999,0.239959 -0.98019,0.0603477 -2.12997,0.0902147 -3.45056,0.0902147 -1.73955,0 -3.21439,-0.0502216 -4.42441,-0.149846 -1.21013,-0.100341 -2.19543,-0.240573 -2.9554,-0.420286 -0.319945,-0.100341 -0.560006,-0.199966 -0.719979,-0.300307 -1.07992,-0.679986 -1.61957,-2.0596 -1.61957,-4.13944l3.92986 0c0,1.17964 0.400034,1.85963 1.2,2.03986 0.439925,0.13972 1.05956,0.229833 1.85953,0.269826 0.800579,0.0399931 1.79038,0.0603477 2.97064,0.0603477 1.01957,0 1.86464,-0.0152404 2.5344,-0.0451074 0.670473,-0.0304807 1.1955,-0.0952266 1.57518,-0.195465 0.759972,-0.13972 1.14026,-0.639993 1.14026,-1.49959 0,-0.82032 -0.260313,-1.31998 -0.780327,-1.50031 -0.0799863,-0.0399931 -0.210092,-0.0697579 -0.389805,-0.0901124 -0.300307,-0.0596317 -0.645005,-0.0997272 -1.03481,-0.119979 -0.390521,-0.0197409 -0.83556,-0.029867 -1.33522,-0.029867l-1.7999 0c-0.460279,0 -0.890078,0 -1.29001,0 -0.400034,0 -0.789839,-0.0101261 -1.17013,-0.029867 -0.719979,0 -1.36498,-0.0202523 -1.93512,-0.0602454 -0.570132,-0.0399931 -1.08503,-0.0894987 -1.5447,-0.149846 -0.399931,-0.059734 -0.75987,-0.130208 -1.07992,-0.210194 -0.319945,-0.0799863 -0.620252,-0.18984 -0.900204,-0.329458 -0.599999,-0.300307 -1.05015,-0.740231 -1.34974,-1.32059 -0.300307,-0.579645 -0.450153,-1.34974 -0.450153,-2.30968z"/>
    <polygon id="_138397400" class="fil1" points="50.84,6.04398 55.492,6.04398 61.4348,12.9597 67.4621,6.04398 72.0103,6.04398 63.4009,15.646 63.4009,20.4676 59.4256,20.4676 59.4256,15.646 "/>
    <path id="_137368208" class="fil1" d="M77.9069 8.13763c0.839958,-0.900306 1.6298,-1.51994 2.37003,-1.86024 0.13972,-0.0596317 0.339686,-0.119979 0.599999,-0.179611 0.779611,-0.240061 2.06972,-0.360041 3.86962,-0.360041 3.28036,0 5.51005,0.530139 6.69031,1.5898 1.03992,0.919945 1.55994,2.49001 1.55994,4.71009l0 8.42996 -3.92997 0 0 -5.64026 0 -2.30968c0,-1.58019 -0.350426,-2.60999 -1.05005,-3.09001 -0.700238,-0.479918 -2.19983,-0.719877 -4.5,-0.719877 -2.07995,0 -3.52993,0.290078 -4.35025,0.869723 -0.239959,0.100341 -0.450153,0.300307 -0.629764,0.599999 -0.239959,0.420286 -0.389805,1.01006 -0.450153,1.77003 -0.0596317,0.300307 -0.0997272,0.61524 -0.119979,0.945311 -0.0197409,0.32956 -0.029867,0.674872 -0.029867,1.03491l0 6.53985 -3.9001 0 0 -14.5197 3.87023 0 0 2.1897z"/>
    <path id="_137375712" class="fil1" d="M98.1266 5.94793l0 -3.3001 3.9 0 0 3.3001 9.29979 0 0 2.96993 -9.29979 0 0 6.32976c0,0.999931 0.219707,1.66028 0.660347,1.98022 0.439925,0.319945 1.1999,0.479918 2.27981,0.479918 0.199966,0 0.384793,-0.00501193 0.554892,-0.0152404 0.170201,-0.0101261 0.314933,-0.0247528 0.434913,-0.0450051 0.559904,-0.0197409 0.970064,-0.0997272 1.22976,-0.240061 0.279952,-0.119979 0.470405,-0.325059 0.570132,-0.614524 0.100239,-0.29018 0.15046,-0.684998 0.15046,-1.18527l0 -1.53007 3.89938 0c0,0.479918 -0.00951244,0.935185 -0.0297647,1.36498 -0.0197409,0.429798 -0.059734,0.84497 -0.120082,1.245 -0.0996249,1.27988 -0.549778,2.23031 -1.34974,2.84995 -0.98019,0.759972 -2.75983,1.14026 -5.33995,1.14026 -2.4805,0 -4.2404,-0.330174 -5.28032,-0.990419 -1.03992,-0.679986 -1.55984,-1.87988 -1.55984,-3.59979l0 -7.16972 -2.97003 0 0 -2.96993 2.97003 0z"/>
    <path id="_135069112" class="fil2" d="M114.779 13.2309c0,-3.03927 0.665768,-5.03576 1.99649,-5.98905 1.31118,-0.953698 3.80457,-1.43065 7.47923,-1.43065 4.25145,0 6.89335,0.556426 7.92652,1.66907 1.05281,1.11224 1.57917,3.31728 1.57917,6.61493l-15.1074 0c0,1.68861 0.387453,2.77139 1.16226,3.24824 0.73481,0.456904 2.22448,0.685305 4.46941,0.685305l1.10273 0c1.29113,0 2.31398,-0.0894987 3.06873,-0.268394 0.536379,-0.118957 0.913808,-0.312683 1.1327,-0.581077 0.218479,-0.267985 0.327514,-0.640606 0.327514,-1.11756l3.84405 0c0,1.86761 -0.724889,3.10924 -2.17548,3.72509 -0.0990112,0.039584 -0.18851,0.0695533 -0.267985,0.0889873 -0.0794749,0.0200477 -0.168871,0.050017 -0.267882,0.0894987 -1.56965,0.456904 -3.83413,0.685407 -6.79433,0.685407 -3.5957,0 -6.06863,-0.47644 -7.41929,-1.43024 -1.37112,-0.973235 -2.05643,-2.96972 -2.05643,-5.98956zm9.47572 -4.76737c-2.20504,0 -3.68469,0.218479 -4.43944,0.655438 -0.774803,0.397374 -1.16226,1.26168 -1.16226,2.59229l11.2038 0c0,-1.31118 -0.387351,-2.17497 -1.16226,-2.59229 -0.714762,-0.436958 -2.19492,-0.655438 -4.43985,-0.655438zm18.6235 11.9787l-7.77718 -14.4221 4.20153 0 6.01902 11.4722 6.01953 -11.4722 4.17156 0 -7.74762 14.4221 -4.88684 0zm13.8561 -7.21135c0,-3.31718 0.615854,-5.38322 1.84756,-6.19791 1.2717,-0.814387 3.92352,-1.22179 7.95608,-1.22179 4.0925,0 6.75434,0.407398 7.98605,1.22179 1.21166,0.794749 1.81759,2.86079 1.81759,6.19791 0,3.65564 -0.735322,5.81067 -2.20504,6.46651 -1.37061,0.635288 -3.90347,0.953289 -7.5986,0.953289 -3.67518,0 -6.22758,-0.318002 -7.65813,-0.953289 -1.43024,-0.655847 -2.14551,-2.81087 -2.14551,-6.46651zm9.86307 -4.46941c-2.56232,0 -4.20143,0.267985 -4.91629,0.804363 -0.715274,0.536379 -1.07276,1.79806 -1.07276,3.78452 0,1.88704 0.34746,3.08878 1.04279,3.60562 0.695328,0.496386 2.34395,0.744834 4.94626,0.744834 2.52294,0 4.142,-0.238425 4.85738,-0.715274 0.675281,-0.496386 1.01323,-1.70815 1.01323,-3.63518 0,-2.02646 -0.337947,-3.28762 -1.01323,-3.78452 -0.715376,-0.536379 -2.33443,-0.804363 -4.85738,-0.804363z"/>
   </g>
   <polygon id="_135892456" class="fil3" points="3.23351,19.946 13.3489,3.80006 23.2601,19.946 18.8476,19.946 13.2481,10.5779 7.57824,19.946 "/>
  </g>
 </g>
</svg>
